<?xml version="1.0" encoding="utf-8"?>
<!-- Generator: Adobe Illustrator 16.0.0, SVG Export Plug-In . SVG Version: 6.00 Build 0)  -->
<!DOCTYPE svg PUBLIC "-//W3C//DTD SVG 1.1//EN" "http://www.w3.org/Graphics/SVG/1.1/DTD/svg11.dtd">
<svg version="1.1" id="Layer_1" xmlns="http://www.w3.org/2000/svg" xmlns:xlink="http://www.w3.org/1999/xlink" x="0px" y="0px"
	 width="1275.59px" height="1275.59px" viewBox="0 0 1275.59 1275.59" enable-background="new 0 0 1275.59 1275.59"
	 xml:space="preserve">
<g>
	<path fill-rule="evenodd" clip-rule="evenodd" fill="#349946" d="M1251.116,630.471c0,335.12-271.666,606.791-606.784,606.791
		c-335.121,0-606.792-271.671-606.792-606.791c0-335.122,271.671-606.787,606.792-606.787
		C979.45,23.684,1251.116,295.349,1251.116,630.471z"/>
	<path fill-rule="evenodd" clip-rule="evenodd" fill="#B1DAAE" d="M341.634,876.447c0,9.029-2.211,16.305-11.185,16.529v0.137
		c-4.846,0.394,1.151,0.589-2.726,0.589c-30.423,0-51.931-6.689-64.521-20.062c-12.601-13.369-18.895-36.037-18.895-68.011V696.657
		c0-17.245-2.526-30.082-7.558-38.515c-5.004-8.353-13.732-14.36-26.158-18.06c-6.299-2.492-10.788-8.569-10.788-15.747
		c0-7.092,4.341-13.143,10.494-15.714v-0.033c22.675-6.005,34.01-23.834,34.01-53.479V438.864c0-28.867,6.488-49.701,19.471-62.491
		c12.98-12.785,34.305-19.183,63.945-19.183h2.726v0.02c9.293,0.061,11.792,7.592,11.792,16.901c0,9.299-2.499,11.655-11.792,11.709
		v0.202c-22.286,0.392-37.301,4.167-45.048,11.336c-7.752,7.166-11.624,21.025-11.624,41.564v118.511
		c0,13.369-1.755,25.676-5.24,36.907c-4.061,12.602-14.434,23.071-31.097,31.393c13.371,7.176,22.767,15.89,28.197,26.157
		c5.421,10.276,8.14,24.812,8.14,43.599v114.154c0,22.095,3.671,36.769,11.04,44.037c7.364,7.268,22.573,10.988,45.632,11.185v0.234
		C339.423,865.327,341.634,867.417,341.634,876.447z"/>
	<path fill-rule="evenodd" clip-rule="evenodd" fill="#B1DAAE" d="M958.209,865.1v-0.234c23.062-0.196,38.271-3.917,45.637-11.185
		c7.367-7.269,11.043-21.942,11.043-44.037V695.489c0-18.786,2.719-33.322,8.137-43.599c5.428-10.267,14.826-18.98,28.194-26.157
		c-16.661-8.322-27.031-18.791-31.099-31.393c-3.485-11.23-5.232-23.538-5.232-36.907V438.923c0-20.54-3.877-34.398-11.632-41.564
		c-7.744-7.169-22.762-10.944-45.048-11.336v-0.202c-9.289-0.054-16.813-2.41-16.813-11.709c0-9.31,7.524-16.841,16.813-16.901
		v-0.02h2.729c29.648,0,50.968,6.398,63.943,19.183c12.985,12.79,19.474,33.624,19.474,62.491V555.11
		c0,29.645,11.337,47.474,34.011,53.479v0.033c6.154,2.571,10.493,8.622,10.493,15.714c0,7.178-4.487,13.255-10.788,15.747
		c-12.421,3.699-21.151,9.707-26.158,18.06c-5.034,8.433-7.558,21.27-7.558,38.515v108.972c0,31.974-6.291,54.642-18.895,68.011
		c-12.594,13.373-34.1,20.062-64.522,20.062c-3.872,0,2.12-0.195-2.729-0.589v-0.137c-8.971-0.225-16.205-7.5-16.205-16.529
		C942.004,867.417,949.238,865.327,958.209,865.1z"/>
	<path fill-rule="evenodd" clip-rule="evenodd" fill="#FFFFFF" d="M562.152,573.605c17.641,0,32.695-6.16,45.158-18.482
		c12.468-12.329,18.698-27.13,18.698-44.415c0-17.207-6.25-31.93-18.752-44.178c-12.505-12.247-27.537-18.372-45.104-18.372
		c-17.567,0-32.563,6.108-44.989,18.311c-12.426,12.206-18.637,26.959-18.637,44.239c0,17.285,6.21,32.086,18.637,44.415
		C529.589,567.445,544.585,573.605,562.152,573.605z M536.488,485.011c7.066-7.14,15.624-10.709,25.665-10.709
		c10.122,0,18.696,3.549,25.724,10.649c7.029,7.102,10.543,15.686,10.543,25.752c0,10.229-3.514,18.894-10.543,25.994
		c-7.028,7.104-15.603,10.652-25.724,10.652c-10.041,0-18.598-3.548-25.665-10.652c-7.065-7.1-10.601-15.683-10.601-25.752
		C525.887,500.798,529.422,492.157,536.488,485.011z M869.719,475.946c17.378,0,28.72,7.701,32.725,21.958h-64.891
		C842.687,483.647,853.847,475.946,869.719,475.946z M913.643,698.847c-11.474-11.974-25.579-17.962-42.319-17.962
		c-11.94,0-22.438,3.22-31.507,9.649c-2.248,1.707-4.147,3.219-5.698,4.534v-42.678l0,0c0-7.676-6.223-13.889-13.895-13.889
		c-7.67,0-13.888,6.213-13.888,13.889v140.969h0.005c0.024,7.176,5.845,12.977,13.015,12.977c7.176,0,12.985-5.801,13.015-12.977
		h0.124v-3.769c5.731,6.202,12.166,10.581,19.301,13.134c6.509,2.404,13.173,3.611,19.994,3.611
		c16.663,0,30.674-6.085,42.029-18.257c11.357-12.161,17.03-27.125,17.03-44.877C930.849,725.613,925.111,710.822,913.643,698.847z
		 M891.725,768.37c-6.547,6.704-14.703,10.062-24.47,10.062c-9.688,0-17.83-3.26-24.421-9.762c-6.586-6.514-9.88-14.61-9.88-24.303
		c0-10.538,3.177-19.127,9.536-25.752c6.355-6.625,14.605-9.943,24.765-9.943c9.688,0,17.825,3.338,24.411,10.002
		c6.591,6.67,9.885,14.92,9.885,24.766C901.551,753.362,898.276,761.666,891.725,768.37z M755.069,695.19v98.169h-0.024
		c-0.029,7.176-5.958,12.977-13.28,12.977c-7.328,0-13.28-5.83-13.28-13.015c0-0.467,0.088-0.903,0.138-1.355v-5.394
		c-2.454,3.175-4.388,5.54-5.812,7.093c-7.754,8.44-18.86,12.671-33.323,12.671c-9.569,0-18.252-2.033-26.034-6.105
		c-7.789-4.074-13.507-9.512-17.144-16.332c-3.237-6.046-5.214-13.447-5.929-22.213c-0.24-3.015-0.353-10.768-0.353-23.253v-43.218
		c0-0.01-0.008-0.015-0.008-0.024c0-7.67,6.354-13.894,14.181-13.894c7.823,0,14.174,6.224,14.174,13.894
		c0,0.781-0.113,1.536-0.235,2.283v40.959c0,8.137,0.078,13.064,0.235,14.771c0,5.659,1.064,10.729,3.199,15.224
		c3.632,7.834,11.229,11.75,22.771,11.75c21.584,0,32.382-13.918,32.382-41.745V695.19l0,0c0-7.67,6.341-13.894,14.168-13.894
		C748.725,681.297,755.069,687.521,755.069,695.19z M763.016,407.298c-7.52,0-13.609,6.167-13.614,13.774l0,0v41.271
		c-6.586-5.66-13.095-9.532-19.523-11.627c-5.358-1.702-11.105-2.558-17.235-2.558c-16.687,0-30.663,5.969-41.922,17.905
		c-11.258,11.934-16.883,26.74-16.883,44.417c0,17.744,5.604,32.709,16.829,44.874c11.214,12.171,24.976,18.252,41.293,18.252
		c13.55,0,24.77-3.796,33.657-11.396c2.066-1.776,3.784-3.563,5.163-5.342v2.771h0.122c0,0.005,0,0.01,0,0.015
		c0,7.184,5.762,13.015,12.859,13.015c7.105,0,12.867-5.831,12.867-13.015c0-0.005-0.005-0.01-0.005-0.015h0.005V421.072l0,0
		C776.624,413.465,770.533,407.298,763.016,407.298z M740.676,535.761c-6.435,6.629-14.508,9.944-24.234,9.944
		c-9.423,0-17.389-3.332-23.892-10.003c-6.512-6.665-9.767-14.837-9.767-24.533c0-9.997,3.229-18.366,9.703-25.106
		c6.474-6.745,14.454-10.117,23.955-10.117c10.026,0,18.188,3.253,24.465,9.763c6.276,6.51,9.417,14.923,9.417,25.229
		C750.323,520.864,747.109,529.136,740.676,535.761z M605.396,789.423c0,6.999-5.672,12.673-12.673,12.673H522.65
		c-6.994,0-12.67-5.674-12.67-12.673c0-6.998,5.676-12.671,12.67-12.671c0.179,0,21.452,0,21.452,0V668.91H522.65v-0.118
		c-6.994,0-12.67-5.673-12.67-12.671c0-6.994,5.676-12.672,12.67-12.672h36.352c7.002,0,12.676,5.678,12.676,12.672
		c0,0.195-0.052,0.373-0.058,0.563l0.04,0.035v120.032c0,0,20.887,0,21.063,0C599.724,776.752,605.396,782.425,605.396,789.423z
		 M395.258,717.89c-6.758,7.028-10.134,16.263-10.134,25.5c0,9.235,3.376,18.473,10.134,25.5c13.508,14.057,35.497,14.057,49.01,0
		c5.053-5.261,16.563-5.261,22.006,0c5.443,5.252,5.443,13.772,0,19.032c-12.715,12.27-29.418,18.414-46.12,18.414
		c-16.703,0-33.399-6.135-46.115-18.414c-25.427-24.559-25.427-64.518-0.005-89.075c25.432-24.548,66.807-24.548,92.24,0
		c5.443,5.262,5.443,13.781,0,19.043c-5.438,5.25-16.953,5.25-22.006,0C430.755,703.828,408.767,703.828,395.258,717.89z
		 M394.851,485.159c-6.689,7.026-10.035,16.263-10.035,25.5c0,9.235,3.346,18.467,10.035,25.5c13.374,14.061,35.141,14.056,48.52,0
		c5.001-5.262,16.397-5.257,21.786,0c5.387,5.256,5.387,13.776,0,19.031c-12.588,12.281-29.125,18.415-45.659,18.415
		s-33.063-6.134-45.649-18.415c-25.171-24.558-25.171-64.512-0.001-89.065c25.171-24.556,66.134-24.556,91.31,0
		c5.387,5.251,5.387,13.771,0,19.033c-5.387,5.255-16.785,5.255-21.786,0C429.992,471.099,408.225,471.099,394.851,485.159z
		 M923.188,556.311c5.589-5.454,5.589-14.286,0-19.74c-5.585-5.451-15.838-5.454-21.029,0l0.023-0.023
		c-6.664,5.898-15.891,8.946-24.033,9.148c-0.294,0.007-4.151,0.01-4.441,0.01c-9.608,0-17.691-2.214-24.238-6.628
		c-6.552-4.42-10.601-10.726-12.151-18.246h78.61c8.78,0,15.892-7.292,15.892-16.293c0-0.398-0.079-0.766-0.103-1.148
		c0.023-0.094,0.112-0.204,0.103-0.285c-1.756-14.36-7.381-26.251-16.853-36.344c-11.641-12.399-26.296-18.604-43.979-18.604
		c-17.305,0-31.968,6.143-44.37,18.43c-12.396,12.283-18.601,27.222-18.601,44.816c0,17.982,5.987,32.842,17.962,44.587
		c11.98,11.744,27.189,17.614,45.637,17.614c0.055,0,0.104-0.015,0.157-0.015c1.271,0,5.807,0.015,5.934,0.015
		c16.51,0,33.02-5.9,45.877-17.703L923.188,556.311z"/>
</g>
</svg>
